<svg xmlns="http://www.w3.org/2000/svg" width="512" height="512" viewBox="0 0 512 512">
  <rect width="512" height="512" rx="113" ry="113" fill="#e54723"/>
  <path fill="#fff7f2" d="M100.61 328.77L161.91 328.77C199.42 328.77 219.31 314.42 219.31 287.57C219.31 267.27 206.60 255.18 183.02 253.33C202.29 251.69 213.16 241.03 213.16 223.61C213.16 195.73 193.27 183.22 153.70 183.22L100.61 183.22M131.97 303.15L131.97 266.25L162.73 266.25C177.69 266.25 187.53 272.40 187.53 284.90C187.53 297.20 177.69 303.15 162.73 303.15M131.97 243.29L131.97 208.85L156.37 208.85C172.16 208.85 181.38 214.18 181.38 226.07C181.38 237.55 171.75 243.29 156.37 243.29M221.77 183.22L260.92 328.77L294.54 328.77L318.12 237.96L341.90 328.77L375.31 328.77L414.67 183.22L381.87 183.22L357.27 285.31L331.85 183.22L304.38 183.22L279.17 285.31L254.36 183.22"/>
</svg>
